<?xml version="1.0" encoding="UTF-8"?>
<svg xmlns="http://www.w3.org/2000/svg" width="39.63255mm" height="8.24394mm" viewBox="0 0 112.34424 23.36865">
  <g id="Layer_1" data-name="Layer 1"/>
  <g id="Layer_2" data-name="Layer 2">
    <g id="Layer_1-2" data-name="Layer 1">
      <g>
        <path d="M4.24951,4.6582H1.36377l-.65479,1.78564H.14551L2.55127,.0874h.51074l2.40576,6.35645h-.55908l-.65918-1.78564Zm-2.71973-.4541h2.54932L2.8042,.74219l-1.27441,3.46191Z" style="fill: #231f20;"/>
        <path d="M11.13428,6.44385h-.53662L6.94336,1.00391V6.44385h-.5415V.0874h.5415l3.65869,5.44385V.0874h.53223V6.44385Z" style="fill: #231f20;"/>
        <path d="M16.18115,4.6582h-2.88574l-.65479,1.78564h-.56348L14.48291,.0874h.51074l2.40576,6.35645h-.55908l-.65918-1.78564Zm-2.71973-.4541h2.54932l-1.2749-3.46191-1.27441,3.46191Z" style="fill: #231f20;"/>
        <path d="M21.93115,4.88086c0-.35205-.12402-.63086-.37109-.83594-.24756-.20508-.7002-.40039-1.35791-.58496-.65771-.18506-1.13818-.38672-1.44092-.60498-.43066-.30811-.646-.71289-.646-1.21338,0-.48633,.2002-.88135,.60059-1.18555,.3999-.3042,.91162-.45605,1.53418-.45605,.42236,0,.7998,.08154,1.1333,.24414,.33301,.16309,.59131,.39014,.7749,.68115,.18311,.29102,.2749,.61572,.2749,.97363h-.5415c0-.43506-.14844-.78467-.44531-1.04883s-.69531-.396-1.19629-.396c-.48584,0-.87305,.1084-1.16113,.32568s-.43213,.50049-.43213,.85059c0,.32324,.12939,.5874,.38867,.7915,.25879,.2041,.67334,.38379,1.24414,.54004,.57031,.15576,1.00244,.31738,1.29639,.48486s.51514,.36719,.66357,.6001,.22266,.5083,.22266,.8252c0,.50049-.19971,.90234-.6001,1.20508s-.92773,.4541-1.58252,.4541c-.44824,0-.85938-.08008-1.2334-.24023s-.65771-.38428-.85156-.67236c-.19336-.28809-.29004-.61816-.29004-.99121h.53711c0,.44824,.16699,.80225,.50195,1.06104,.33447,.25928,.77979,.38867,1.33594,.38867,.49463,0,.89209-.10938,1.19189-.32764s.44971-.50781,.44971-.86865Z" style="fill: #231f20;"/>
        <path d="M27.94287,.54102h-2.17871V6.44385h-.53662V.54102h-2.17432V.0874h4.88965v.45361Z" style="fill: #231f20;"/>
        <path d="M32.05518,4.6582h-2.88574l-.65479,1.78564h-.56348L30.35693,.0874h.51074l2.40576,6.35645h-.55908l-.65918-1.78564Zm-2.71973-.4541h2.54932l-1.2749-3.46191-1.27441,3.46191Z" style="fill: #231f20;"/>
        <path d="M34.44775,5.98975h3.9248v.4541h-4.5752v-.40625l3.77197-5.49658h-3.65869V.0874h4.32227V.46777l-3.78516,5.52197Z" style="fill: #231f20;"/>
        <path d="M42.36279,.0874h.5415V4.55322c0,.60254-.17383,1.08301-.52148,1.44092-.34814,.35791-.81445,.53711-1.39941,.53711-.61719,0-1.09131-.16162-1.42334-.48486-.33154-.32275-.49756-.77393-.49756-1.35303h.53711c0,.45947,.12061,.80518,.3623,1.03662,.24121,.23145,.58203,.34717,1.02148,.34717,.4043,0,.73389-.13379,.98877-.40186,.25488-.26758,.38477-.63135,.39062-1.09131V.0874Z" style="fill: #231f20;"/>
        <path d="M47.90771,4.6582h-2.88574l-.65479,1.78564h-.56348L46.20947,.0874h.51074l2.40576,6.35645h-.55908l-.65918-1.78564Zm-2.71973-.4541h2.54932l-1.2749-3.46191-1.27441,3.46191Z" style="fill: #231f20;"/>
        <path d="M52.9458,.0874l2.34424,5.60986L57.64307,.0874h.71631V6.44385h-.53711V3.67578l.04346-2.83789-2.36621,5.60596h-.41455l-2.35742-5.58398,.04346,2.79883v2.78516h-.53711V.0874h.71191Z" style="fill: #231f20;"/>
        <path d="M60.625,6.44385h-.53662V.0874h.53662V6.44385Z" style="fill: #231f20;"/>
        <path d="M63.78174,3.2876l-.89502,.88184v2.27441h-.53711V.0874h.53711V3.51416L66.14355,.0874h.67676l-2.66309,2.8291,2.86816,3.52734h-.65479l-2.58887-3.15625Z" style="fill: #231f20;"/>
        <path d="M72.55273,3.61035c0,.58496-.10107,1.09863-.30322,1.54102-.20264,.44287-.49121,.7832-.8667,1.02197-.37549,.23828-.80957,.35791-1.30127,.35791-.74219,0-1.3418-.26562-1.79883-.79688-.45654-.53125-.68506-1.24805-.68506-2.1499v-.65527c0-.5791,.10254-1.0918,.30762-1.53857s.49561-.79053,.87109-1.03076c.37549-.23975,.80762-.35986,1.29639-.35986,.48926,0,.92041,.11768,1.29443,.35352s.66309,.56885,.8667,1c.20361,.43066,.31006,.92969,.31885,1.49707v.75977Zm-.53711-.68994c0-.76514-.17334-1.36475-.51953-1.79834s-.8208-.65088-1.42334-.65088c-.59082,0-1.06152,.21777-1.41211,.65283-.35107,.43506-.52637,1.04297-.52637,1.82275v.66357c0,.75391,.1748,1.35107,.52393,1.79248,.34961,.44092,.82373,.66113,1.42334,.66113,.6084,0,1.08301-.21729,1.42334-.65283,.34033-.43506,.51074-1.04102,.51074-1.81836v-.67236Z" style="fill: #231f20;"/>
        <path d="M74.43018,2.87695l1.34033-.42334v.39258l-1.34033,.42383v2.71973h3.13477v.4541h-3.67627V3.44434l-.69385,.21826v-.39258l.69385-.21826V.0874h.5415V2.87695Z" style="fill: #231f20;"/>
        <path d="M82.06152,4.6582h-2.88574l-.65479,1.78564h-.56348L80.36328,.0874h.51074l2.40576,6.35645h-.55908l-.65918-1.78564Zm-2.71973-.4541h2.54932l-1.2749-3.46191-1.27441,3.46191Z" style="fill: #231f20;"/>
        <path d="M87.021,.0874h.54199V4.55322c0,.60254-.1748,1.08301-.52246,1.44092s-.81348,.53711-1.39893,.53711c-.61719,0-1.09131-.16162-1.42334-.48486-.33154-.32275-.49756-.77393-.49756-1.35303h.53711c0,.45947,.12061,.80518,.3623,1.03662,.24121,.23145,.58203,.34717,1.02148,.34717,.40381,0,.73389-.13379,.98877-.40186,.25488-.26758,.38477-.63135,.39062-1.09131V.0874Z" style="fill: #231f20;"/>
        <path d="M93.63525,4.46191c-.07324,.66943-.3125,1.18164-.71875,1.53662-.40527,.35498-.94629,.53271-1.62109,.53271-.47168,0-.88867-.11816-1.25098-.35352-.3623-.23584-.64258-.56982-.84082-1.00195-.19824-.43262-.29785-.92627-.30078-1.48242v-.8252c0-.56445,.09863-1.06543,.29688-1.50195,.19727-.43652,.48242-.77344,.85352-1.01074,.37109-.23682,.79785-.35547,1.28125-.35547,.68066,0,1.21875,.18311,1.61328,.5498,.39355,.3667,.62305,.875,.6875,1.52393h-.54199c-.13379-1.08008-.71973-1.61963-1.75879-1.61963-.57617,0-1.03613,.21533-1.37793,.64648s-.5127,1.02686-.5127,1.78711v.77783c0,.73389,.16699,1.31934,.5,1.75635s.7832,.65527,1.35156,.65527c.56152,0,.98438-.13477,1.26953-.40381,.28613-.26904,.46191-.67285,.52832-1.21143h.54199Z" style="fill: #231f20;"/>
        <path d="M95.18018,5.98975h3.92578v.4541h-4.57617v-.40625l3.77246-5.49658h-3.6582V.0874h4.32129V.46777l-3.78516,5.52197Z" style="fill: #231f20;"/>
        <path d="M102.15381,3.55371l1.94238-3.46631h.62012l-2.29688,3.96387v2.39258h-.53711v-2.39258L99.59033,.0874h.6377l1.92578,3.46631Z" style="fill: #231f20;"/>
        <path d="M107.07373,3.2876l-.89551,.88184v2.27441h-.53613V.0874h.53613V3.51416L109.43604,.0874h.67578l-2.66309,2.8291,2.86914,3.52734h-.65527l-2.58887-3.15625Z" style="fill: #231f20;"/>
      </g>
      <g>
        <path d="M1.3125,21.62646V10.60645c0-.81494-.42969-.95068-1.3125-1.10889v-.40723H4.43555v.40723c-.88281,.1582-1.3125,.29395-1.3125,1.10889v11.02002c0,.65625,.31689,1.08594,1.17676,1.04102l3.52979-.18115c1.40332-.06787,2.05957-.72412,2.44385-1.40283l.3623-.65625h.45264l-.4751,1.4707c-.15869,.40723-.27197,.79199-.22656,1.24463H0v-.40723c.88281-.18115,1.3125-.29443,1.3125-1.10889Z" style="fill: #231f20;"/>
        <path d="M11.99512,16.17285c0-4.18604,3.14551-7.44482,7.35449-7.44482,4.11865,0,7.06006,3.12256,7.06006,7.1958,0,4.18652-3.16797,7.44482-7.354,7.44482-4.11865,0-7.06055-3.12256-7.06055-7.1958Zm7.60352,6.51709c2.28564,0,4.77441-1.60645,4.77441-6.04199,0-4.34473-2.55664-7.24121-5.58936-7.24121-2.28516,0-4.75195,1.60693-4.75195,5.99658,0,4.39014,2.55713,7.28662,5.56689,7.28662Z" style="fill: #231f20;"/>
        <path d="M28.10938,16.19531c0-4.77441,3.53027-7.46729,7.44482-7.46729,3.3042,0,5.22754,1.87842,5.22754,3.4624,0,.74658-.43018,1.26709-1.1543,1.26709-.56543,0-.99561-.38477-1.08594-1.06348-.18115-1.24463-1.13135-2.96436-3.73389-2.96436-2.94189,0-4.95557,2.05908-4.95557,5.63428,0,4.34473,3.1001,7.64844,6.78857,7.64844,1.3125,0,2.19482-.40723,2.19482-1.71973v-1.58398c0-1.65186-.27148-2.12695-2.03662-2.2627v-.40723h5.13672v.40723c-1.24463,.1582-1.42529,.61084-1.42529,2.2627v1.62939c0,.56592,0,1.35791,.06787,1.94629,.02246,.20361-.15869,.27148-.3623,.1582-.29395-.13574-.56543-.24902-1.06348-.24902-1.08594,0-2.08203,.4751-3.77881,.4751-4.02832,0-7.26416-2.66992-7.26416-7.17334Z" style="fill: #231f20;"/>
        <path d="M43.29492,16.17285c0-4.18604,3.14551-7.44482,7.35449-7.44482,4.11865,0,7.06006,3.12256,7.06006,7.1958,0,4.18652-3.16797,7.44482-7.354,7.44482-4.11865,0-7.06055-3.12256-7.06055-7.1958Zm7.60352,6.51709c2.28564,0,4.77441-1.60645,4.77441-6.04199,0-4.34473-2.55664-7.24121-5.58936-7.24121-2.28516,0-4.75195,1.60693-4.75195,5.99658,0,4.39014,2.55713,7.28662,5.56689,7.28662Z" style="fill: #231f20;"/>
        <path d="M60.26904,21.62646V10.60645c0-.81494-.42969-.95068-1.3125-1.10889v-.40723h5.97412c3.59814,0,5.67969,1.4707,5.67969,4.23145s-2.08154,4.36719-5.67969,4.36719h-1.60645c-.92773,0-1.24463,.38477-1.24463,1.22217v2.71533c0,.81445,.42969,.92773,1.53857,1.10889v.40723h-4.66162v-.40723c.88281-.18115,1.3125-.29443,1.3125-1.10889Zm3.05518-4.48047h1.60645c2.71533,0,3.68848-1.60693,3.68848-3.77881,0-2.12744-.97314-3.71143-3.68848-3.71143h-1.76514c-.74658,0-1.08594,.13574-1.08594,.95068v5.31738c0,.8374,.31689,1.22217,1.24463,1.22217Z" style="fill: #231f20;"/>
        <path d="M73.16992,21.62646V10.60645c0-.81494-.42969-.95068-1.3125-1.10889v-.40723h10.09277c.20312,0,.33887,.06787,.3623,.29395,.06738,.54297,.1582,1.22217,.42969,2.37598h-.40723c-.52051-1.38037-1.3584-2.10449-2.91895-2.10449h-3.05566c-.90527,0-1.37988,.15869-1.37988,1.01855v4.07275c0,.8374,.47461,.95068,1.37988,.95068h2.42188c1.33496,0,1.62891-.58838,1.80957-1.60693h.31738v3.84717h-.31738c-.18066-1.01855-.47461-1.65186-1.80957-1.65186h-2.42188c-.90527,0-1.37988,.11328-1.37988,.9502v4.32227c0,.81445,.45215,.99561,2.2627,.99561h2.60254c1.69727,0,2.12695-.67871,2.48926-1.22217l.54297-.85986h.40723c-.33984,.65625-.54297,1.22217-.67871,2.35352-.02246,.20361-.1582,.31689-.3623,.31689h-10.38672v-.40723c.88281-.18115,1.3125-.29443,1.3125-1.10889Z" style="fill: #231f20;"/>
        <path d="M85.45898,21.62646V10.56104c0-.76953-.42969-.90527-1.3125-1.06348v-.40723h5.04639c3.66602,0,7.55859,1.51611,7.55859,6.90137,0,4.7749-3.10059,7.10547-7.33203,7.10547-.85938,0-2.17188-.09033-3.07715-.09033-.56592,0-1.26807,.02246-2.1958,.13574v-.40723c.88281-.18115,1.3125-.29443,1.3125-1.10889Zm3.89307,.9502c4.16309,0,5.54395-3.07715,5.54395-6.58496,0-3.37158-1.3125-6.3584-5.70312-6.3584h-.54297c-.90527,0-1.37988,.13574-1.37988,.92773v11.08789c0,.79199,1.13086,.92773,2.08203,.92773Z" style="fill: #231f20;"/>
        <path d="M99.15186,21.21924l4.45801-10.52246c.3623-.81445,.42969-1.17676,.42969-1.60645l1.19922-.11328,5.02441,11.65381c.65625,1.58398,.92773,1.96875,2.08105,2.08154v.43018h-4.81934v-.40723c1.42578-.22656,1.42578-.61084,1.01855-1.44824l-.74707-1.71973c-.27148-.58838-.63379-.79199-1.3125-.79199h-4.54883c-.56543,0-1.08594,.1582-1.28906,.67871l-.74707,1.71973c-.40723,.97314,.13574,1.40283,1.40332,1.56152v.40723h-4.09668v-.40723c1.01855-.20361,1.49414-.49805,1.94629-1.51611Zm2.60254-3.05518h4.86523c.27148,0,.54297-.24854,.38477-.56543l-2.58008-6.01953c-.13574-.38477-.27148-.38477-.45215,.04541l-2.51172,5.90625c-.18164,.38477-.0459,.6333,.29395,.6333Z" style="fill: #231f20;"/>
      </g>
    </g>
  </g>
</svg>